<svg width="1440" height="1496" viewBox="0 0 1440 1496" fill="none" xmlns="http://www.w3.org/2000/svg">
<g clip-path="url(#clip0)">
<rect width="1440" height="1496" fill="white"/>
<path d="M494.876 372.135C479.625 250.952 472 -27 472 -27H796.711C796.711 -27 827.848 209.596 843.099 372.135C858.349 534.675 946.04 853.021 995.605 979.975C1045.17 1106.93 1225 1558 1225 1558H881.225C881.225 1558 659.456 1101.16 621.329 979.975C583.203 858.792 510.127 493.319 494.876 372.135Z" fill="#5F5F5F" stroke="black" stroke-width="10"/>
<path d="M647.992 -21.2811C647.837 -24.0382 645.476 -26.1474 642.719 -25.9921C639.962 -25.8368 637.853 -23.4759 638.008 -20.7189L647.992 -21.2811ZM772.504 892.551L777.144 890.689L772.504 892.551ZM1050.4 1559.97C1051.49 1562.5 1054.43 1563.68 1056.97 1562.6C1059.5 1561.51 1060.68 1558.57 1059.6 1556.03L1050.4 1559.97ZM643 -21C638.008 -20.7189 638.008 -20.7188 638.008 -20.7188C638.008 -20.7187 638.008 -20.7186 638.008 -20.7185C638.008 -20.7182 638.008 -20.7179 638.008 -20.7174C638.008 -20.7165 638.008 -20.7152 638.008 -20.7134C638.008 -20.7097 638.009 -20.7044 638.009 -20.6972C638.01 -20.6829 638.011 -20.6616 638.013 -20.6332C638.016 -20.5765 638.021 -20.4918 638.027 -20.3796C638.04 -20.1553 638.059 -19.8209 638.084 -19.3803C638.134 -18.4992 638.209 -17.1934 638.306 -15.4939C638.502 -12.0949 638.79 -7.12076 639.162 -0.818747L649.145 -1.40751C648.773 -7.70444 648.485 -12.6738 648.29 -16.0684C648.192 -17.7658 648.118 -19.0694 648.068 -19.9485C648.043 -20.388 648.024 -20.7214 648.011 -20.9448C648.005 -21.0565 648 -21.1407 647.997 -21.1969C647.995 -21.225 647.994 -21.2462 647.993 -21.2602C647.993 -21.2672 647.993 -21.2725 647.992 -21.276C647.992 -21.2777 647.992 -21.279 647.992 -21.2799C647.992 -21.2803 647.992 -21.2806 647.992 -21.2808C647.992 -21.281 647.992 -21.281 647.992 -21.2811C647.992 -21.2811 647.992 -21.2811 643 -21ZM641.571 39.0281C642.315 51.0744 643.159 64.4843 644.085 78.8186L654.064 78.1743C653.139 63.8501 652.296 50.4493 651.552 38.4111L641.571 39.0281ZM646.717 118.674C647.596 131.662 648.52 145.021 649.48 158.499L659.455 157.788C658.496 144.324 657.572 130.977 656.695 117.999L646.717 118.674ZM652.404 198.312C653.427 211.791 654.476 225.142 655.541 238.112L665.507 237.293C664.444 224.347 663.397 211.017 662.376 197.556L652.404 198.312ZM658.988 277.939C659.617 284.789 660.247 291.423 660.878 297.793L670.829 296.808C670.201 290.464 669.573 283.854 668.946 277.025L658.988 277.939ZM660.878 297.793C661.432 303.385 662.109 309.641 662.899 316.49L672.834 315.344C672.048 308.535 671.377 302.334 670.829 296.808L660.878 297.793ZM667.606 354.277C669.142 365.939 670.858 378.496 672.729 391.776L682.631 390.381C680.764 377.127 679.052 364.6 677.521 352.971L667.606 354.277ZM678.146 429.305C679.931 441.401 681.809 453.897 683.767 466.693L693.652 465.181C691.697 452.402 689.821 439.923 688.039 427.845L678.146 429.305ZM689.584 504.107C691.53 516.433 693.533 528.935 695.582 541.531L705.452 539.926C703.406 527.345 701.406 514.858 699.462 502.548L689.584 504.107ZM701.743 578.881C703.827 591.339 705.944 603.812 708.084 616.225L717.938 614.527C715.802 602.13 713.687 589.673 711.606 577.231L701.743 578.881ZM714.613 653.523C716.855 666.13 719.109 678.592 721.363 690.825L731.198 689.013C728.948 676.801 726.697 664.36 724.458 651.772L714.613 653.523ZM728.36 728.037C730.816 740.823 733.258 753.232 735.669 765.155L745.471 763.173C743.067 751.285 740.631 738.908 738.181 726.151L728.36 728.037ZM743.43 802.277C746.329 815.64 749.156 828.072 751.883 839.359L761.603 837.01C758.899 825.816 756.089 813.462 753.203 800.157L743.43 802.277ZM761.631 876.085C763.801 883.306 765.885 889.48 767.863 894.412L777.144 890.689C775.319 886.139 773.333 880.277 771.208 873.207L761.631 876.085ZM767.863 894.412C769.66 898.892 772.217 905.133 775.434 912.901L784.673 909.075C781.461 901.317 778.921 895.118 777.144 890.689L767.863 894.412ZM790.889 949.916C795.6 961.139 800.842 973.591 806.522 987.055L815.736 983.168C810.057 969.707 804.818 957.262 800.11 946.046L790.889 949.916ZM822.138 1024.01C827.159 1035.88 832.404 1048.26 837.826 1061.05L847.033 1057.15C841.611 1044.36 836.368 1031.98 831.348 1020.12L822.138 1024.01ZM853.503 1098.01C858.648 1110.13 863.903 1122.5 869.236 1135.05L878.439 1131.14C873.107 1118.59 867.852 1106.22 862.708 1094.1L853.503 1098.01ZM884.956 1172.03C890.167 1184.28 895.419 1196.63 900.684 1209L909.885 1205.08C904.621 1192.71 899.369 1180.37 894.158 1168.12L884.956 1172.03ZM916.428 1245.98C921.7 1258.36 926.956 1270.7 932.167 1282.93L941.367 1279.01C936.156 1266.78 930.9 1254.44 925.628 1242.06L916.428 1245.98ZM947.935 1319.92C953.288 1332.48 958.558 1344.84 963.713 1356.92L972.911 1353C967.757 1340.91 962.487 1328.55 957.134 1316L947.935 1319.92ZM979.44 1393.79C984.922 1406.64 990.213 1419.04 995.266 1430.88L1004.46 1426.95C999.411 1415.11 994.12 1402.72 988.638 1389.87L979.44 1393.79ZM1010.97 1467.67C1016.75 1481.2 1022.04 1493.59 1026.74 1504.59L1035.94 1500.67C1031.24 1489.66 1025.95 1477.27 1020.17 1463.75L1010.97 1467.67ZM1042.64 1541.81C1045.14 1547.65 1047.08 1552.19 1048.39 1555.27C1049.05 1556.81 1049.55 1557.98 1049.89 1558.77C1050.06 1559.17 1050.19 1559.46 1050.27 1559.66C1050.32 1559.76 1050.35 1559.84 1050.37 1559.89C1050.38 1559.92 1050.39 1559.93 1050.39 1559.95C1050.4 1559.95 1050.4 1559.96 1050.4 1559.96C1050.4 1559.96 1050.4 1559.96 1050.4 1559.96C1050.4 1559.96 1050.4 1559.97 1050.4 1559.97C1050.4 1559.97 1050.4 1559.97 1050.4 1559.97C1050.4 1559.97 1050.4 1559.97 1055 1558C1059.6 1556.03 1059.6 1556.03 1059.6 1556.03C1059.6 1556.03 1059.6 1556.03 1059.6 1556.03C1059.6 1556.03 1059.6 1556.03 1059.6 1556.03C1059.6 1556.03 1059.6 1556.03 1059.6 1556.03C1059.59 1556.03 1059.59 1556.02 1059.59 1556.02C1059.58 1556 1059.58 1555.98 1059.57 1555.96C1059.54 1555.91 1059.51 1555.83 1059.47 1555.73C1059.38 1555.53 1059.26 1555.24 1059.09 1554.84C1058.75 1554.05 1058.25 1552.88 1057.59 1551.34C1056.27 1548.26 1054.34 1543.72 1051.84 1537.88L1042.64 1541.81Z" fill="white"/>
<g filter="url(#filter0_d)">
<path d="M375.034 175.018C373.654 175.018 372.534 176.137 372.534 177.518C372.534 178.898 373.654 180.018 375.034 180.018V175.018ZM668.435 177.518L654.001 163.084L639.567 177.518L654.001 191.951L668.435 177.518ZM375.034 180.018H654.001V175.018H375.034V180.018Z" fill="#A2F1FF"/>
</g>
<g filter="url(#filter1_d)">
<rect x="100" y="113" width="275" height="131" rx="18" fill="#A2F1FF"/>
</g>
<path d="M205.393 166.375H206.893V168.07L205.153 169.075H201.208L199.468 168.07V159.43L201.208 158.425H205.153L206.893 159.43V161.125H205.393V159.775H200.968V167.725H205.393V166.375ZM210.943 164.275V169H209.443V158.5H210.943V162.925H215.968V158.5H217.468V169H215.968V164.275H210.943ZM224.726 158.5L228.476 169H227.006L226.121 166.51H221.471L220.586 169H219.116L222.866 158.5H224.726ZM223.781 159.985L221.951 165.16H225.641L223.811 159.985H223.781ZM230.127 169V158.5H235.362L237.102 159.505V163.96L235.362 164.965H231.627V169H230.127ZM231.627 159.85V163.615H235.602V159.85H231.627ZM243.087 159.85V169H241.587V159.85H238.602V158.5H246.072V159.85H243.087ZM249.366 164.275V167.65H253.851V169H247.866V158.5H253.851V159.85H249.366V162.925H252.951V164.275H249.366ZM259.717 164.815H257.452V169H255.952V158.5H261.337L263.077 159.505V163.81L261.337 164.815L263.752 169H262.087L259.717 164.815ZM257.452 159.85V163.465H261.577V159.85H257.452ZM269.678 161.65V160.135L272.528 158.5H273.728V167.65H276.278V169H269.678V167.65H272.228V160.18L269.678 161.65Z" fill="black"/>
<path d="M119.962 195V181H122.762V195H119.962ZM128.953 185.94V195H126.153V181H128.773L134.813 190.06H134.853V181H137.653V195H135.033L128.993 185.94H128.953ZM146.435 183.4V195H143.635V183.4H139.855V181H150.215V183.4H146.435ZM163.043 195H159.963L156.963 189.72H155.223V195H152.423V181H160.003L162.323 182.34V188.38L160.003 189.72L163.043 195ZM155.223 183.4V187.32H159.523V183.4H155.223ZM176.623 193.76L174.303 195.1H168.043L165.723 193.76V182.24L168.043 180.9H174.303L176.623 182.24V193.76ZM168.523 183.3V192.7H173.823V183.3H168.523ZM190.92 193.66L188.6 195H180.02V181H188.6L190.92 182.34V193.66ZM182.82 183.4V192.6H188.12V183.4H182.82ZM202.417 181H205.217V193.76L202.897 195.1H196.637L194.317 193.76V181H197.117V192.5H202.417V181ZM216.114 190.9H218.914V193.76L216.594 195.1H210.934L208.614 193.76V182.24L210.934 180.9H216.594L218.914 182.24V185.1H216.114V183.3H211.414V192.7H216.114V190.9ZM227.49 183.4V195H224.69V183.4H220.91V181H231.27V183.4H227.49ZM233.477 195V181H236.277V195H233.477ZM250.569 193.76L248.249 195.1H241.989L239.669 193.76V182.24L241.989 180.9H248.249L250.569 182.24V193.76ZM242.469 183.3V192.7H247.769V183.3H242.469ZM256.766 185.94V195H253.966V181H256.586L262.626 190.06H262.666V181H265.466V195H262.846L256.806 185.94H256.766ZM279.443 183.4V195H276.643V183.4H272.863V181H283.223V183.4H279.443ZM296.33 193.76L294.01 195.1H287.75L285.43 193.76V182.24L287.75 180.9H294.01L296.33 182.24V193.76ZM288.23 183.3V192.7H293.53V183.3H288.23ZM307.723 189V195H304.923V181H307.723V186.6H313.223V181H316.023V195H313.223V189H307.723ZM324.795 183.4V195H321.995V183.4H318.215V181H328.575V183.4H324.795ZM342.562 195V185.76H342.522L339.362 195H336.702L333.522 185.64H333.482V195H330.782V181H334.502L338.022 191.3H338.062L341.562 181H345.262V195H342.562ZM348.653 195V181H351.453V192.6H356.233V195H348.653Z" fill="black"/>
<g filter="url(#filter2_d)">
<path d="M422.034 556.018C420.654 556.018 419.534 557.137 419.534 558.518C419.534 559.898 420.654 561.018 422.034 561.018V556.018ZM715.435 558.518L701.001 544.084L686.567 558.518L701.001 572.951L715.435 558.518ZM422.034 561.018H701.001V556.018H422.034V561.018Z" fill="#A2F1FF"/>
</g>
<g filter="url(#filter3_d)">
<rect x="147" y="494" width="275" height="131" rx="18" fill="#A2F1FF"/>
</g>
<path d="M251.285 547.375H252.785V549.07L251.045 550.075H247.1L245.36 549.07V540.43L247.1 539.425H251.045L252.785 540.43V542.125H251.285V540.775H246.86V548.725H251.285V547.375ZM256.835 545.275V550H255.335V539.5H256.835V543.925H261.86V539.5H263.36V550H261.86V545.275H256.835ZM270.618 539.5L274.368 550H272.898L272.013 547.51H267.363L266.478 550H265.008L268.758 539.5H270.618ZM269.673 540.985L267.843 546.16H271.533L269.703 540.985H269.673ZM276.019 550V539.5H281.254L282.994 540.505V544.96L281.254 545.965H277.519V550H276.019ZM277.519 540.85V544.615H281.494V540.85H277.519ZM288.979 540.85V550H287.479V540.85H284.494V539.5H291.964V540.85H288.979ZM295.258 545.275V548.65H299.743V550H293.758V539.5H299.743V540.85H295.258V543.925H298.843V545.275H295.258ZM305.609 545.815H303.344V550H301.844V539.5H307.229L308.969 540.505V544.81L307.229 545.815L309.644 550H307.979L305.609 545.815ZM303.344 540.85V544.465H307.469V540.85H303.344ZM320.895 550.075H317.31L315.57 549.07V547.375H317.07V548.725H321.135V545.245H318.06V543.895H321.135V540.775H317.07V542.125H315.57V540.43L317.31 539.425H320.895L322.635 540.43V543.805L321.33 544.555V544.585L322.635 545.335V549.07L320.895 550.075Z" fill="black"/>
<path d="M177.585 571.9H180.385V574.76L178.065 576.1H172.405L170.085 574.76V563.24L172.405 561.9H178.065L180.385 563.24V566.1H177.585V564.3H172.885V573.7H177.585V571.9ZM194.201 576H191.121L188.121 570.72H186.381V576H183.581V562H191.161L193.481 563.34V569.38L191.161 570.72L194.201 576ZM186.381 564.4V568.32H190.681V564.4H186.381ZM199.682 570V573.6H205.262V576H196.882V562H205.262V564.4H199.682V567.6H204.062V570H199.682ZM214.338 562L219.338 576H216.578L215.518 572.98H210.278L209.218 576H206.458L211.458 562H214.338ZM212.878 565.52L211.118 570.58H214.658L212.918 565.52H212.878ZM225.719 564.4V576H222.919V564.4H219.139V562H229.499V564.4H225.719ZM231.706 576V562H234.506V576H231.706ZM240.697 566.94V576H237.897V562H240.517L246.557 571.06H246.597V562H249.397V576H246.777L240.737 566.94H240.697ZM257.8 571.1V568.7H262.9V574.76L260.58 576.1H254.92L252.6 574.76V563.24L254.92 561.9H260.58L262.9 563.24V566.1H260.1V564.3H255.4V573.7H260.1V571.1H257.8ZM277.776 562L282.776 576H280.016L278.956 572.98H273.716L272.656 576H269.896L274.896 562H277.776ZM276.316 565.52L274.556 570.58H278.096L276.356 565.52H276.316ZM287.572 566.94V576H284.772V562H287.392L293.432 571.06H293.472V562H296.272V576H293.652L287.612 566.94H287.572ZM307.67 570V576H304.87V562H307.67V567.6H313.17V562H315.97V576H313.17V570H307.67ZM324.742 564.4V576H321.942V564.4H318.162V562H328.522V564.4H324.742ZM342.509 576V566.76H342.469L339.309 576H336.649L333.469 566.64H333.429V576H330.729V562H334.449L337.969 572.3H338.009L341.509 562H345.209V576H342.509ZM348.6 576V562H351.4V573.6H356.18V576H348.6ZM366.381 570V576H363.581V562H372.161V564.4H366.381V567.6H370.961V570H366.381ZM374.362 576V562H377.162V576H374.362ZM380.554 576V562H383.354V573.6H388.134V576H380.554ZM393.139 570V573.6H398.719V576H390.339V562H398.719V564.4H393.139V567.6H397.519V570H393.139Z" fill="black"/>
<g filter="url(#filter4_d)">
<path d="M949.967 330.018C951.347 330.018 952.467 331.137 952.467 332.518C952.467 333.898 951.347 335.018 949.967 335.018V330.018ZM656.566 332.518L671 318.084L685.434 332.518L671 346.951L656.566 332.518ZM949.967 335.018H671V330.018H949.967V335.018Z" fill="#FFA2F6"/>
</g>
<g filter="url(#filter5_d)">
<rect width="275" height="131" rx="18" transform="matrix(-1 0 0 1 1225 268)" fill="#FFA2F6"/>
</g>
<path d="M1054.45 321.375H1055.95V323.07L1054.21 324.075H1050.26L1048.52 323.07V314.43L1050.26 313.425H1054.21L1055.95 314.43V316.125H1054.45V314.775H1050.02V322.725H1054.45V321.375ZM1060 319.275V324H1058.5V313.5H1060V317.925H1065.02V313.5H1066.52V324H1065.02V319.275H1060ZM1073.78 313.5L1077.53 324H1076.06L1075.18 321.51H1070.53L1069.64 324H1068.17L1071.92 313.5H1073.78ZM1072.84 314.985L1071.01 320.16H1074.7L1072.87 314.985H1072.84ZM1079.18 324V313.5H1084.42L1086.16 314.505V318.96L1084.42 319.965H1080.68V324H1079.18ZM1080.68 314.85V318.615H1084.66V314.85H1080.68ZM1092.14 314.85V324H1090.64V314.85H1087.66V313.5H1095.13V314.85H1092.14ZM1098.42 319.275V322.65H1102.91V324H1096.92V313.5H1102.91V314.85H1098.42V317.925H1102.01V319.275H1098.42ZM1108.77 319.815H1106.51V324H1105.01V313.5H1110.39L1112.13 314.505V318.81L1110.39 319.815L1112.81 324H1111.14L1108.77 319.815ZM1106.51 314.85V318.465H1110.63V314.85H1106.51ZM1120.23 322.65H1125.48V324H1118.73V319.29L1120.47 318.285H1123.98V314.85H1120.23V316.2H1118.73V314.505L1120.47 313.5H1123.74L1125.48 314.505V318.63L1123.74 319.635H1120.23V322.65Z" fill="black"/>
<path d="M972.447 345.9H975.247V348.76L972.927 350.1H967.267L964.947 348.76V337.24L967.267 335.9H972.927L975.247 337.24V340.1H972.447V338.3H967.747V347.7H972.447V345.9ZM981.243 344V350H978.443V336H981.243V341.6H986.743V336H989.543V350H986.743V344H981.243ZM1003.84 348.76L1001.52 350.1H995.255L992.935 348.76V337.24L995.255 335.9H1001.52L1003.84 337.24V348.76ZM995.735 338.3V347.7H1001.04V338.3H995.735ZM1018.13 348.76L1015.81 350.1H1009.55L1007.23 348.76V337.24L1009.55 335.9H1015.81L1018.13 337.24V348.76ZM1010.03 338.3V347.7H1015.33V338.3H1010.03ZM1021.53 342.9V337.24L1023.85 335.9H1028.91L1031.23 337.24V339.9H1028.43V338.3H1024.33V341.64H1028.91L1031.23 342.98V348.76L1028.91 350.1H1023.65L1021.33 348.76V346.1H1024.13V347.7H1028.43V344.24H1023.85L1021.53 342.9ZM1034.63 350V336H1037.43V350H1034.63ZM1043.63 340.94V350H1040.83V336H1043.45L1049.49 345.06H1049.53V336H1052.33V350H1049.71L1043.67 340.94H1043.63ZM1060.73 345.1V342.7H1065.83V348.76L1063.51 350.1H1057.85L1055.53 348.76V337.24L1057.85 335.9H1063.51L1065.83 337.24V340.1H1063.03V338.3H1058.33V347.7H1063.03V345.1H1060.73ZM1080.7 336L1085.7 350H1082.94L1081.88 346.98H1076.64L1075.58 350H1072.82L1077.82 336H1080.7ZM1079.24 339.52L1077.48 344.58H1081.02L1079.28 339.52H1079.24ZM1098.28 338.4V350H1095.48V338.4H1091.7V336H1102.06V338.4H1098.28ZM1107.06 344V347.6H1112.64V350H1104.26V336H1112.64V338.4H1107.06V341.6H1111.44V344H1107.06ZM1114.04 350L1118.56 342.84L1114.24 336H1117.4L1120.14 340.34L1122.9 336H1126.06L1121.72 342.84L1126.26 350H1123.1L1120.14 345.34L1117.2 350H1114.04ZM1133.84 338.4V350H1131.04V338.4H1127.26V336H1137.62V338.4H1133.84ZM1147.83 344V347.6H1153.41V350H1145.03V336H1153.41V338.4H1147.83V341.6H1152.21V344H1147.83ZM1166.9 348.66L1164.58 350H1156V336H1164.58L1166.9 337.34V348.66ZM1158.8 338.4V347.6H1164.1V338.4H1158.8ZM1170.3 350V336H1173.1V350H1170.3ZM1181.87 338.4V350H1179.07V338.4H1175.29V336H1185.65V338.4H1181.87ZM1198.76 348.76L1196.44 350.1H1190.18L1187.86 348.76V337.24L1190.18 335.9H1196.44L1198.76 337.24V348.76ZM1190.66 338.3V347.7H1195.96V338.3H1190.66ZM1212.77 350H1209.69L1206.69 344.72H1204.95V350H1202.15V336H1209.73L1212.05 337.34V343.38L1209.73 344.72L1212.77 350ZM1204.95 338.4V342.32H1209.25V338.4H1204.95Z" fill="black"/>
<g filter="url(#filter6_d)">
<path d="M1008.97 706.018C1010.35 706.018 1011.47 707.137 1011.47 708.518C1011.47 709.898 1010.35 711.018 1008.97 711.018V706.018ZM715.566 708.518L730 694.084L744.434 708.518L730 722.951L715.566 708.518ZM1008.97 711.018H730V706.018H1008.97V711.018Z" fill="#FFA2F6"/>
</g>
<g filter="url(#filter7_d)">
<rect width="275" height="131" rx="18" transform="matrix(-1 0 0 1 1284 644)" fill="#FFA2F6"/>
</g>
<path d="M1113.49 697.375H1114.99V699.07L1113.25 700.075H1109.31L1107.57 699.07V690.43L1109.31 689.425H1113.25L1114.99 690.43V692.125H1113.49V690.775H1109.07V698.725H1113.49V697.375ZM1119.04 695.275V700H1117.54V689.5H1119.04V693.925H1124.07V689.5H1125.57V700H1124.07V695.275H1119.04ZM1132.82 689.5L1136.57 700H1135.1L1134.22 697.51H1129.57L1128.68 700H1127.21L1130.96 689.5H1132.82ZM1131.88 690.985L1130.05 696.16H1133.74L1131.91 690.985H1131.88ZM1138.23 700V689.5H1143.46L1145.2 690.505V694.96L1143.46 695.965H1139.73V700H1138.23ZM1139.73 690.85V694.615H1143.7V690.85H1139.73ZM1151.19 690.85V700H1149.69V690.85H1146.7V689.5H1154.17V690.85H1151.19ZM1157.46 695.275V698.65H1161.95V700H1155.96V689.5H1161.95V690.85H1157.46V693.925H1161.05V695.275H1157.46ZM1167.82 695.815H1165.55V700H1164.05V689.5H1169.44L1171.18 690.505V694.81L1169.44 695.815L1171.85 700H1170.19L1167.82 695.815ZM1165.55 690.85V694.465H1169.68V690.85H1165.55ZM1183.69 697.57V700H1182.22V697.57H1177.03V696.28L1182.31 689.5H1183.69V696.265H1185.04V697.57H1183.69ZM1178.59 696.265H1182.22V691.645H1182.19L1178.59 696.235V696.265Z" fill="black"/>
<path d="M1101.09 717.74L1099.35 718.74V718.78L1101.09 719.78V724.66L1098.77 726H1091.19V712H1098.77L1101.09 713.34V717.74ZM1093.99 719.96V723.6H1098.29V719.96H1093.99ZM1093.99 714.4V717.56H1098.29V714.4H1093.99ZM1110.97 712L1115.97 726H1113.21L1112.15 722.98H1106.91L1105.85 726H1103.09L1108.09 712H1110.97ZM1109.51 715.52L1107.75 720.58H1111.29L1109.55 715.52H1109.51ZM1117.97 718.9V713.24L1120.29 711.9H1125.35L1127.67 713.24V715.9H1124.87V714.3H1120.77V717.64H1125.35L1127.67 718.98V724.76L1125.35 726.1H1120.09L1117.77 724.76V722.1H1120.57V723.7H1124.87V720.24H1120.29L1117.97 718.9ZM1131.07 726V712H1133.87V726H1131.07ZM1144.77 721.9H1147.57V724.76L1145.25 726.1H1139.59L1137.27 724.76V713.24L1139.59 711.9H1145.25L1147.57 713.24V716.1H1144.77V714.3H1140.07V723.7H1144.77V721.9ZM1161.34 714.4V726H1158.54V714.4H1154.76V712H1165.12V714.4H1161.34ZM1172.81 712L1177.81 726H1175.05L1173.99 722.98H1168.75L1167.69 726H1164.93L1169.93 712H1172.81ZM1171.35 715.52L1169.59 720.58H1173.13L1171.39 715.52H1171.35ZM1184.8 721.1V718.7H1189.9V724.76L1187.58 726.1H1181.92L1179.6 724.76V713.24L1181.92 711.9H1187.58L1189.9 713.24V716.1H1187.1V714.3H1182.4V723.7H1187.1V721.1H1184.8ZM1193.11 718.9V713.24L1195.43 711.9H1200.49L1202.81 713.24V715.9H1200.01V714.3H1195.91V717.64H1200.49L1202.81 718.98V724.76L1200.49 726.1H1195.23L1192.91 724.76V722.1H1195.71V723.7H1200.01V720.24H1195.43L1193.11 718.9Z" fill="black"/>
</g>
<defs>
<filter id="filter0_d" x="368.534" y="163.084" width="303.9" height="36.8675" filterUnits="userSpaceOnUse" color-interpolation-filters="sRGB">
<feFlood flood-opacity="0" result="BackgroundImageFix"/>
<feColorMatrix in="SourceAlpha" type="matrix" values="0 0 0 0 0 0 0 0 0 0 0 0 0 0 0 0 0 0 127 0" result="hardAlpha"/>
<feOffset dy="4"/>
<feGaussianBlur stdDeviation="2"/>
<feComposite in2="hardAlpha" operator="out"/>
<feColorMatrix type="matrix" values="0 0 0 0 0 0 0 0 0 0 0 0 0 0 0 0 0 0 0.25 0"/>
<feBlend mode="normal" in2="BackgroundImageFix" result="effect1_dropShadow"/>
<feBlend mode="normal" in="SourceGraphic" in2="effect1_dropShadow" result="shape"/>
</filter>
<filter id="filter1_d" x="96" y="113" width="283" height="142" filterUnits="userSpaceOnUse" color-interpolation-filters="sRGB">
<feFlood flood-opacity="0" result="BackgroundImageFix"/>
<feColorMatrix in="SourceAlpha" type="matrix" values="0 0 0 0 0 0 0 0 0 0 0 0 0 0 0 0 0 0 127 0" result="hardAlpha"/>
<feOffset dy="7"/>
<feGaussianBlur stdDeviation="2"/>
<feComposite in2="hardAlpha" operator="out"/>
<feColorMatrix type="matrix" values="0 0 0 0 0 0 0 0 0 0 0 0 0 0 0 0 0 0 0.25 0"/>
<feBlend mode="normal" in2="BackgroundImageFix" result="effect1_dropShadow"/>
<feBlend mode="normal" in="SourceGraphic" in2="effect1_dropShadow" result="shape"/>
</filter>
<filter id="filter2_d" x="415.534" y="544.084" width="303.9" height="36.8675" filterUnits="userSpaceOnUse" color-interpolation-filters="sRGB">
<feFlood flood-opacity="0" result="BackgroundImageFix"/>
<feColorMatrix in="SourceAlpha" type="matrix" values="0 0 0 0 0 0 0 0 0 0 0 0 0 0 0 0 0 0 127 0" result="hardAlpha"/>
<feOffset dy="4"/>
<feGaussianBlur stdDeviation="2"/>
<feComposite in2="hardAlpha" operator="out"/>
<feColorMatrix type="matrix" values="0 0 0 0 0 0 0 0 0 0 0 0 0 0 0 0 0 0 0.25 0"/>
<feBlend mode="normal" in2="BackgroundImageFix" result="effect1_dropShadow"/>
<feBlend mode="normal" in="SourceGraphic" in2="effect1_dropShadow" result="shape"/>
</filter>
<filter id="filter3_d" x="143" y="494" width="283" height="142" filterUnits="userSpaceOnUse" color-interpolation-filters="sRGB">
<feFlood flood-opacity="0" result="BackgroundImageFix"/>
<feColorMatrix in="SourceAlpha" type="matrix" values="0 0 0 0 0 0 0 0 0 0 0 0 0 0 0 0 0 0 127 0" result="hardAlpha"/>
<feOffset dy="7"/>
<feGaussianBlur stdDeviation="2"/>
<feComposite in2="hardAlpha" operator="out"/>
<feColorMatrix type="matrix" values="0 0 0 0 0 0 0 0 0 0 0 0 0 0 0 0 0 0 0.25 0"/>
<feBlend mode="normal" in2="BackgroundImageFix" result="effect1_dropShadow"/>
<feBlend mode="normal" in="SourceGraphic" in2="effect1_dropShadow" result="shape"/>
</filter>
<filter id="filter4_d" x="652.566" y="318.084" width="303.9" height="36.8675" filterUnits="userSpaceOnUse" color-interpolation-filters="sRGB">
<feFlood flood-opacity="0" result="BackgroundImageFix"/>
<feColorMatrix in="SourceAlpha" type="matrix" values="0 0 0 0 0 0 0 0 0 0 0 0 0 0 0 0 0 0 127 0" result="hardAlpha"/>
<feOffset dy="4"/>
<feGaussianBlur stdDeviation="2"/>
<feComposite in2="hardAlpha" operator="out"/>
<feColorMatrix type="matrix" values="0 0 0 0 0 0 0 0 0 0 0 0 0 0 0 0 0 0 0.25 0"/>
<feBlend mode="normal" in2="BackgroundImageFix" result="effect1_dropShadow"/>
<feBlend mode="normal" in="SourceGraphic" in2="effect1_dropShadow" result="shape"/>
</filter>
<filter id="filter5_d" x="946.001" y="268" width="283" height="142" filterUnits="userSpaceOnUse" color-interpolation-filters="sRGB">
<feFlood flood-opacity="0" result="BackgroundImageFix"/>
<feColorMatrix in="SourceAlpha" type="matrix" values="0 0 0 0 0 0 0 0 0 0 0 0 0 0 0 0 0 0 127 0" result="hardAlpha"/>
<feOffset dy="7"/>
<feGaussianBlur stdDeviation="2"/>
<feComposite in2="hardAlpha" operator="out"/>
<feColorMatrix type="matrix" values="0 0 0 0 0 0 0 0 0 0 0 0 0 0 0 0 0 0 0.25 0"/>
<feBlend mode="normal" in2="BackgroundImageFix" result="effect1_dropShadow"/>
<feBlend mode="normal" in="SourceGraphic" in2="effect1_dropShadow" result="shape"/>
</filter>
<filter id="filter6_d" x="711.566" y="694.084" width="303.9" height="36.8675" filterUnits="userSpaceOnUse" color-interpolation-filters="sRGB">
<feFlood flood-opacity="0" result="BackgroundImageFix"/>
<feColorMatrix in="SourceAlpha" type="matrix" values="0 0 0 0 0 0 0 0 0 0 0 0 0 0 0 0 0 0 127 0" result="hardAlpha"/>
<feOffset dy="4"/>
<feGaussianBlur stdDeviation="2"/>
<feComposite in2="hardAlpha" operator="out"/>
<feColorMatrix type="matrix" values="0 0 0 0 0 0 0 0 0 0 0 0 0 0 0 0 0 0 0.25 0"/>
<feBlend mode="normal" in2="BackgroundImageFix" result="effect1_dropShadow"/>
<feBlend mode="normal" in="SourceGraphic" in2="effect1_dropShadow" result="shape"/>
</filter>
<filter id="filter7_d" x="1005" y="644" width="283" height="142" filterUnits="userSpaceOnUse" color-interpolation-filters="sRGB">
<feFlood flood-opacity="0" result="BackgroundImageFix"/>
<feColorMatrix in="SourceAlpha" type="matrix" values="0 0 0 0 0 0 0 0 0 0 0 0 0 0 0 0 0 0 127 0" result="hardAlpha"/>
<feOffset dy="7"/>
<feGaussianBlur stdDeviation="2"/>
<feComposite in2="hardAlpha" operator="out"/>
<feColorMatrix type="matrix" values="0 0 0 0 0 0 0 0 0 0 0 0 0 0 0 0 0 0 0.25 0"/>
<feBlend mode="normal" in2="BackgroundImageFix" result="effect1_dropShadow"/>
<feBlend mode="normal" in="SourceGraphic" in2="effect1_dropShadow" result="shape"/>
</filter>
<clipPath id="clip0">
<rect width="1440" height="1496" fill="white"/>
</clipPath>
</defs>
</svg>
